<?xml version="1.0" encoding="utf-8"?>
<!-- Generator: Adobe Illustrator 25.2.1, SVG Export Plug-In . SVG Version: 6.00 Build 0)  -->
<svg version="1.1" id="Layer_1" xmlns="http://www.w3.org/2000/svg" xmlns:xlink="http://www.w3.org/1999/xlink" x="0px" y="0px"
	 viewBox="0 0 293.5 505.5" style="enable-background:new 0 0 293.5 505.5;" xml:space="preserve">
<style type="text/css">
	.st0{fill:#7C7C7C;stroke:#FFFFFF;stroke-width:0.75;stroke-linecap:round;stroke-linejoin:round;}
</style>
<path id="manila" class="st0" d="M106.1,176.3l-2.2,11.2l35.8,24.6l7.8,10.1L135.2,239l-23.5,20.1l-30.2,1.1l-24.6-41.4l-10.1-24.6
	l-2.2-17.9l33.6-1.1L95,173L106.1,176.3L106.1,176.3z"/>
<path id="qc" class="st0" d="M283,19.6l-12.3,19l-6.7,4.5l-1.1,15.7l11.2,9l-17.9,34.7l-5.6,31.3l-14.5,5.6l-12.3,16.8h-9l3.4,10.1
	L207,187.6l4.5,11.2l13.4,13.4l-5.6,2.2l-3.4,13.4l-13.4-3.4l-14.5,4.5v-12.3l-2.2-6.7h-6.7l-2.2-3.4l-20.1-1.1l-11.2-4.5l-5.6,11.2
	l-35.8-24.6l2.2-11.2v-10.1l9-16.8l16.8-20.1l14.5-14.5l1.1-7.8l-13.4-3.4v-7.8l1.1-15.7l28-20.1l17.9-2.2l26.9-1.1L218,51l5.6-10.1
	l11.2-3.4l4.5-11.2l7.8-1.1l6.7-9L283,19.6L283,19.6z"/>
<path id="caloocan" class="st0" d="M106.1,176.3L95,172.9l-16.8,2.2l-9-10.1l2.2-5.6l1.1-11.2l10.1-2.2l22.4-1.1l10.1-7.8l-4.5-5.6
	l6.7-10.1l9-1.1l6.7-5.6h13.4l-14.5,14.5l-16.8,20.1l-9,16.8L106.1,176.3L106.1,176.3z M239.3,26.3l-4.5,11.2l-11.2,3.4L218,51
	l-10,5.6l-26.9,1.1l-17.9,2.2l-28,20.1l-1.1,15.7l-4.5-3.4H124l-6.7-6.7l1.1-12.3l6.7-1.1l1.1-12.3l-1.1-6.7l-10-11.2l25.7-11.2
	L152,12.9l20.1-3.4l58.2,17.9L239.3,26.3L239.3,26.3z"/>
<path id="las_pinas" class="st0" d="M143.1,402.3l-1.1,13.4l-12.3,14.5l-2.2,15.7l-5.6,5.6l-2.2-5.6l-28-47l-14.5-10.1l-3.4-33.6
	l-14.5-21.3l11.2-7.8l3.4-4.5l16.8,19l11.2,5.6l1.1,7.8l12.3,9l2.2,14.5l12.3,9l4.5,10.1L143.1,402.3L143.1,402.3z"/>
<path id="makati" class="st0" d="M178.9,251.2l17.9,9l1.1,11.2l-4.5,5.6l1.1,10.1l-3.4,4.5h-5.6l-2.2-14.5l5.6-10.1l-9-6.7l-4.5,4.5
	l-10.1-1.1l-1.1,5.6l6.7,6.7l-1.1,7.8l-16.8,6.7l-11,5.5l-11.2-3.4l-4.5-9l-1.1-11.2l-10.1-3.4l-3.4-10.1l23.5-20.1l12.3,6.7l9,7.8
	L178.9,251.2L178.9,251.2z"/>
<path id="malabon" class="st0" d="M51.3,102.4l11.2,4.5l11.2,22.4l9,1.1l15.7,6.7l12.3-5.6l4.5,5.6l-10.1,7.8L82.7,146l-10.1,2.2
	l-1.1,11.2l-2.2,5.6l-4.5-7.8H58l-4.5-12.3l-12.3-22.4l-9-7.8l-10.1-11.2l6.7-5.6l23.5,16.8L51.3,102.4z"/>
<path id="mandaluyong" class="st0" d="M187.8,216.6v12.3l1.1,3.4l-4.5,11.2l-5.6,7.8l-22.4,2.2l-9-7.8l-12.3-6.7l12.3-16.8l9,4.5
	l14.5-3.4l6.7-7.8L187.8,216.6z"/>
<path id="marikina" class="st0" d="M241.5,198.7l-5.6-3.4l-19-4.5l-5.6,7.8l-4.5-11.2l11.2-21.3l-3.4-10.1h9l12.3-16.8l14.5-5.6
	l28,9l2.2,11.2l-5.6,25.7l-19-3.4l-10.1,7.8L241.5,198.7L241.5,198.7z"/>
<path id="muntinlupa" class="st0" d="M260.6,383.3l10.1,78.3l-88.4,4.5l-6.7,6.7l-10.1-1.1l-15.7,9l-12.3,11.2l-15.7,4.5l3.4-33.6
	l-3.4-11.2l5.6-5.6l2.2-15.7l12.3-14.5l1.1-13.4l26.9-13.4v-19l9-6.7l10.1,1.1L260.6,383.3z"/>
<path id="navotas" class="st0" d="M28.9,98l-6.7,5.6l10.1,11.2l9,7.8L53.6,145l4.5,12.3h6.7l4.5,7.8l9,10.1l-33.6,1.1L39,144.9
	l-7.8-16.8L7.7,96.8l6.7-9L28.9,98L28.9,98z"/>
<path id="paranaque" class="st0" d="M156.5,319.5l14.5,6.7l-1.1,43.6v19L143,402.2l-9-5.6l-4.5-10.1l-12.3-9L115,363l-12.3-9
	l-1.1-7.8l-11.2-5.6l-16.8-19l9-11.2l4.5-22.4l24.6,2.2l-1.1,16.8l3.4,10.1l15.7-2.2l12.3,6.7L156.5,319.5L156.5,319.5z"/>
<path id="pasay" class="st0" d="M142,296l14.5,23.5l-14.5,2.2l-12.3-6.7l-15.7,2.2l-3.4-10.1l1.1-16.8l-24.6-2.2l-5.6-28l30.2-1.1
	l3.4,10.1l10.1,3.4l1.1,11.2l4.5,9L142,296z"/>
<path id="pasig" class="st0" d="M241.5,198.7l9,16.8l-2.2,23.5l-5.6,11.2l5.6,10.1l-6.7,10.1l7.8,28l-17.9-19h-16.8l-3.4-2.2
	l-1.1-5.6l-5.6-2.2l-6.7,2.2l-1.1-11.2l-17.9-9l5.6-7.8l4.5-11.2l-1.1-3.4l14.5-4.5l13.4,3.4l3.4-13.4l5.6-2.2l-13.4-13.4l5.6-7.8
	l19,4.5L241.5,198.7L241.5,198.7z"/>
<path id="san_juan" class="st0" d="M187.8,216.6l-10.1-1.1l-6.7,7.8l-14.5,3.4l-9-4.5l-7.8-10.1l5.6-11.2l11.2,4.5l20.1,1.1l2.2,3.4
	h6.7L187.8,216.6L187.8,216.6z"/>
<path id="taguig" class="st0" d="M194.5,287.1l7.8-1.1l3.4-6.7l5.6-2.2l3.4,2.2h16.8l17.9,19l11.2,85l-71.6-19l-10.1-1.1l-9,6.7
	l1.1-43.6l-14.5-6.7L142,296l11.2-5.6l16.8-6.7l1.1-7.8l-6.7-6.7l1.1-5.6l10.1,1.1l4.5-4.5l9,6.7l-5.6,10.1l2.2,14.5h5.6
	L194.5,287.1L194.5,287.1z"/>
<path id="valenzuela" class="st0" d="M134.1,95.7v7.8l13.4,3.4l-1.1,7.8H133l-6.7,5.6l-9,1.1l-6.7,10.1l-12.3,5.6l-15.7-6.7l-9-1.1
	l-11.2-22.4l-11.2-4.5l-24.6-38h24.6L67,81.2l25.7-10.1l10.1-23.5l12.3-5.6l10.1,11.2l1.1,6.7l-1.1,12.3l-6.7,1.1l-1.1,12.3l6.7,6.7
	h5.6L134.1,95.7L134.1,95.7z"/>
</svg>
