<?xml version="1.0" encoding="utf-8"?>
<!-- Generator: Adobe Illustrator 25.2.1, SVG Export Plug-In . SVG Version: 6.00 Build 0)  -->
<svg version="1.1" id="Layer_1" xmlns="http://www.w3.org/2000/svg" xmlns:xlink="http://www.w3.org/1999/xlink" x="0px" y="0px"
	 viewBox="0 0 1000 1722" style="enable-background:new 0 0 1000 1722;" xml:space="preserve">
<style type="text/css">
	.st0{fill:#7C7C7C;stroke:#FFFFFF;stroke-width:2;stroke-linecap:round;stroke-linejoin:round;}
</style>
<path id="manila" class="st0" d="M363.5,593.8l-7.8,39l124.8,85.8l27.3,35.1l-42.9,58.5L383,882.4l-105.3,3.9L191.9,742l-35.1-85.8
	l-7.8-62.4l117-3.9l58.5-7.8L363.5,593.8L363.5,593.8z"/>
<path id="qc" class="st0" d="M979.8,47.7l-42.9,66.3l-23.4,15.6l-3.9,54.6l39,31.2l-62.4,120.9l-19.5,109.2l-50.7,19.5
	L773,523.6h-31.2l11.7,35.1l-39,74.1l15.6,39l46.8,46.8l-19.5,7.8l-11.7,46.8l-46.8-11.7l-50.7,15.6v-42.9l-7.8-23.4H617l-7.8-11.7
	l-70.2-3.9l-39-15.6l-19.5,39l-124.8-85.8l7.8-39v-35.1l31.2-58.5l58.5-70.2l50.7-50.7l3.9-27.3L461,340.3V313l3.9-54.6l97.5-70.2
	l62.4-7.8l93.6-3.9l35.1-19.5l19.5-35.1l39-11.7l15.6-39l27.3-3.9l23.4-31.2L979.8,47.7L979.8,47.7z"/>
<path id="caloocan" class="st0" d="M363.5,593.8l-39-11.7l-58.5,7.8l-31.2-35.1l7.8-19.5l3.9-39l35.1-7.8l78-3.9l35.1-27.3
	l-15.6-19.5l23.4-35.1l31.2-3.9l23.4-19.5h46.8L453.2,430l-58.5,70.2l-31.2,58.5L363.5,593.8L363.5,593.8z M827.6,71.1l-15.6,39
	l-39,11.7L753.5,157l-35.1,19.5l-93.6,3.9l-62.4,7.8l-97.5,70.2L461,313l-15.6-11.7h-19.5l-23.4-23.4l3.9-42.9l23.4-3.9l3.9-42.9
	l-3.9-23.4l-35.1-39l89.7-39l39-62.4l70.2-11.7l202.8,62.4L827.6,71.1L827.6,71.1z"/>
<path id="las pinas" class="st0" d="M492.2,1381.7l-3.9,46.8l-42.9,50.7l-7.8,54.6l-19.5,19.5l-7.8-19.5L312.8,1370l-50.7-35.1
	l-11.7-117l-50.7-74.1l39-27.3l11.7-15.6l58.5,66.3l39,19.5l3.9,27.3l42.9,31.2l7.8,50.7l42.9,31.2l15.6,35.1L492.2,1381.7
	L492.2,1381.7z"/>
<path id="makati" class="st0" d="M617,855.1l62.4,31.2l3.9,39l-15.6,19.5l3.9,35.1l-11.7,15.6h-19.5l-7.8-50.7l19.5-35.1
	l-31.2-23.4L605.3,902l-35.1-3.9l-3.9,19.5l23.4,23.4l-3.9,27.3l-58.5,23.4l-39,19.5l-39-11.7l-15.6-31.2l-3.9-39l-35.1-11.7
	L383,882.4l81.9-70.2l42.9,23.4l31.2,27.3L617,855.1L617,855.1z"/>
<path id="malabon" class="st0" d="M172.4,336.4l39,15.6l39,78l31.2,3.9l54.6,23.4l42.9-19.5l15.6,19.5l-35.1,27.3l-78,3.9l-35.1,7.8
	l-3.9,39l-7.8,19.5l-15.6-27.3h-23.4l-15.6-42.9l-42.9-78l-31.2-27.3l-35.1-39l23.4-19.5l81.9,58.5L172.4,336.4z"/>
<path id="mandaluyong" class="st0" d="M648.2,734.2v42.9l3.9,11.7l-15.6,39L617,855.1l-78,7.8l-31.2-27.3l-42.9-23.4l42.9-58.5
	l31.2,15.6l50.7-11.7l23.4-27.3L648.2,734.2z"/>
<path id="marikina" class="st0" d="M835.4,671.8l-19.5-11.7l-66.3-15.6l-19.5,27.3l-15.6-39l39-74.1l-11.7-35.1H773l42.9-58.5
	l50.7-19.5l97.5,31.2l7.8,39l-19.5,89.7l-66.3-11.7L851,621.1L835.4,671.8L835.4,671.8z"/>
<path id="muntinlupa" class="st0" d="M901.8,1315.4l35.1,273L628.7,1604l-23.4,23.4l-35.1-3.9l-54.6,31.2l-42.9,39l-54.6,15.6l11.7-117
	l-11.7-39l19.5-19.5l7.8-54.6l42.9-50.7l3.9-46.8l93.6-46.8v-66.3l31.2-23.4l35.1,3.9L901.8,1315.4z"/>
<path id="navotas" class="st0" d="M94.4,320.8l-23.4,19.5l35.1,39l31.2,27.3l42.9,78l15.6,42.9h23.4l15.6,27.3l31.2,35.1l-117,3.9
	l-19.5-109.2l-27.3-58.5L20.2,316.9l23.4-31.2L94.4,320.8L94.4,320.8z"/>
<path id="paranaque" class="st0" d="M539,1093.1l50.7,23.4l-3.9,152.1v66.3l-93.6,46.8l-31.2-19.5l-15.6-35.1l-42.9-31.2l-7.8-50.7
	l-42.9-31.2l-3.9-27.3l-39-19.5l-58.5-66.3l31.2-39l15.6-78l85.8,7.8l-3.9,58.5l11.7,35.1l54.6-7.8l42.9,23.4L539,1093.1L539,1093.1
	z"/>
<path id="pasay" class="st0" d="M488.3,1011.2l50.7,81.9l-50.7,7.8l-42.9-23.4l-54.6,7.8l-11.7-35.1l3.9-58.5l-85.8-7.8
	l-19.5-97.5l105.3-3.9l11.7,35.1l35.1,11.7l3.9,39l15.6,31.2L488.3,1011.2z"/>
<path id="pasig" class="st0" d="M835.4,671.8l31.2,58.5l-7.8,81.9l-19.5,39l19.5,35.1l-23.4,35.1l27.3,97.5l-62.4-66.3h-58.5
	l-11.7-7.8l-3.9-19.5l-19.5-7.8l-23.4,7.8l-3.9-39L617,855.1l19.5-27.3l15.6-39l-3.9-11.7l50.7-15.6l46.8,11.7l11.7-46.8l19.5-7.8
	l-46.8-46.8l19.5-27.3l66.3,15.6L835.4,671.8L835.4,671.8z"/>
<path id="san juan" class="st0" d="M648.2,734.2l-35.1-3.9l-23.4,27.3L539,769.3l-31.2-15.6l-27.3-35.1l19.5-39l39,15.6l70.2,3.9
	l7.8,11.7h23.4L648.2,734.2L648.2,734.2z"/>
<path id="taguig" class="st0" d="M671.6,980l27.3-3.9l11.7-23.4l19.5-7.8l11.7,7.8h58.5l62.4,66.3l39,296.4l-249.6-66.3l-35.1-3.9
	l-31.2,23.4l3.9-152.1l-50.7-23.4l-50.7-81.9l39-19.5l58.5-23.4l3.9-27.3l-23.4-23.4l3.9-19.5l35.1,3.9l15.6-15.6l31.2,23.4
	l-19.5,35.1l7.8,50.7h19.5L671.6,980L671.6,980z"/>
<path id="valenzuela" class="st0" d="M461,313v27.3l46.8,11.7l-3.9,27.3h-46.8l-23.4,19.5l-31.2,3.9l-23.4,35.1l-42.9,19.5l-54.6-23.4
	l-31.2-3.9l-39-78l-39-15.6L86.5,203.8h85.8l54.6,58.5l89.7-35.1l35.1-81.9l42.9-19.5l35.1,39l3.9,23.4l-3.9,42.9l-23.4,3.9
	l-3.9,42.9l23.4,23.4h19.5L461,313L461,313z"/>
</svg>
